<svg height="120" viewBox="0 0 123 120" width="123" xmlns="http://www.w3.org/2000/svg"><g fill="#fffffe" fill-rule="evenodd" transform=""><path d="m0 49.2307692c0 26.9202283 19.6903791 49.2307693 48.2977818 49.2307693 28.4215521 0 48.1124746-22.310541 48.1124746-49.2307693 0-28.5799529-19.3192214-49.2307692-48.1124746-49.2307692-28.9785604 0-48.2977818 20.6508163-48.2977818 49.2307692zm18.5758191 0c0-17.8853275 10.960293-35.2177731 29.7219627-35.2177731 18.5763625 0 29.5361121 17.3324456 29.5361121 35.2177731 0 16.7790242-9.1023307 35.2177732-29.5361121 35.2177732-20.619632 0-29.7219627-18.438749-29.7219627-35.2177732z"/><path d="m122.051282 120v-6.514535h-17.008877c6.803551-6.633954 15.695977-14.6886291 15.695977-23.4544672 0-8.1141168-5.132342-12.0822799-13.070177-12.0822799-4.23765 0-8.594016 1.0662096-12.3541002 2.9613957l.6567197 6.8701164c2.7450557-1.7768373 6.0869335-3.3164417 9.6085045-3.3164417 3.401775 0 6.803551 1.7768373 6.803551 5.5672095 0 7.5812799-14.1445651 19.3085132-18.0239056 23.0394432v6.929559z"/></g></svg>
